sfk_cyclingleg_states
version=1
nRows=4
nColumns=53
inDegrees=yes

# SIMM Motion File Header:
name sfk_cyclingleg_states
datacolumns 53
datarows 4
otherdata 1
range 0.40211521 0.40277778
endheader
time	/jointset/bb/crank_angle/value	/jointset/bb/crank_angle/speed	/jointset/spindle/pedal_angle_r/value	/jointset/spindle/pedal_angle_r/speed	/jointset/ground_pelvis/pelvis_tilt/value	/jointset/ground_pelvis/pelvis_tilt/speed	/jointset/ground_pelvis/pelvis_list/value	/jointset/ground_pelvis/pelvis_list/speed	/jointset/ground_pelvis/pelvis_rotation/value	/jointset/ground_pelvis/pelvis_rotation/speed	/jointset/ground_pelvis/pelvis_tx/value	/jointset/ground_pelvis/pelvis_tx/speed	/jointset/ground_pelvis/pelvis_ty/value	/jointset/ground_pelvis/pelvis_ty/speed	/jointset/ground_pelvis/pelvis_tz/value	/jointset/ground_pelvis/pelvis_tz/speed	/jointset/hip_r/hip_angle_r/value	/jointset/hip_r/hip_angle_r/speed	/jointset/hip_r/hip_adduction_r/value	/jointset/hip_r/hip_adduction_r/speed	/jointset/hip_r/hip_rotation_r/value	/jointset/hip_r/hip_rotation_r/speed	/jointset/knee_r/knee_angle_r/value	/jointset/knee_r/knee_angle_r/speed	/jointset/knee_r/tib_tx_r/value	/jointset/knee_r/tib_tx_r/speed	/jointset/knee_r/tib_ty_r/value	/jointset/knee_r/tib_ty_r/speed	/jointset/tib_pat_r/pat_angle_r/value	/jointset/tib_pat_r/pat_angle_r/speed	/jointset/tib_pat_r/pat_tx_r/value	/jointset/tib_pat_r/pat_tx_r/speed	/jointset/tib_pat_r/pat_ty_r/value	/jointset/tib_pat_r/pat_ty_r/speed	/jointset/ankle_r/ankle_angle_r/value	/jointset/ankle_r/ankle_angle_r/speed	/jointset/subtalar_r/subtalar_angle_r/value	/jointset/subtalar_r/subtalar_angle_r/speed	/jointset/mtp_r/mtp_angle_r/value	/jointset/mtp_r/mtp_angle_r/speed	/forceset/bifemlh_r/activation	/forceset/bifemlh_r/fiber_length	/forceset/bifemsh_r/activation	/forceset/bifemsh_r/fiber_length	/forceset/glut_max2_r/activation	/forceset/glut_max2_r/fiber_length	/forceset/vas_int_r/activation	/forceset/vas_int_r/fiber_length	/forceset/med_gas_r/activation	/forceset/med_gas_r/fiber_length	/forceset/tib_ant_r/activation	/forceset/tib_ant_r/fiber_length
      0.40211521	   -203.20592557	   -480.13863232	    203.27454425	    250.44169421	      0.00000000	      0.00000000	     -0.00000000	     -0.00000000	     -0.00000000	     -0.00000000	      0.00000000	      0.00000000	      0.00000000	      0.00000000	      0.00000000	      0.00000000	     37.45909619	     82.37987300	      4.38458310	      0.11707394	      0.82639643	    -23.84606948	    -59.05419266	   -290.07732545	      0.00474603	      0.02127214	     -0.47567495	     -0.08796911	     17.37671334	      6.48531800	      0.04309346	     -0.08542268	     -0.02295884	      0.01066737	     22.08202800	    -21.50434694	      0.00000000	     -0.00000000	      0.00000000	      0.00000000	     -0.02633021	      0.11479042	     -0.02633021	      0.16691604	     -0.02633021	      0.12822836	     -0.02633021	      0.12845380	     -0.02633021	      0.14626235	     -0.02633021	      0.11646801
      0.40229783	   -203.29360909	   -480.13863232	    203.32029035	    250.55269408	      0.00000000	      0.00000000	     -0.00000000	     -0.00000000	     -0.00000000	     -0.00000000	      0.00000000	      0.00000000	      0.00000000	      0.00000000	      0.00000000	      0.00000000	     37.47414945	     82.47789291	      4.38460418	      0.11381188	      0.82204207	    -23.84122740	    -59.10717484	   -290.16368609	      0.00474991	      0.02117961	     -0.47569102	     -0.08803654	     17.37789500	      6.45577489	      0.04307785	     -0.08547892	     -0.02295689	      0.01066884	     22.07811009	    -21.40321027	      0.00000000	     -0.00000000	      0.00000000	      0.00000000	     -0.02635372	      0.11477599	     -0.02635372	      0.16688615	     -0.02635372	      0.12823975	     -0.02635372	      0.12849259	     -0.02635372	      0.14624555	     -0.02635372	      0.11647156
      0.40273415	   -203.50310124	   -480.13863232	    203.42966859	    250.81931068	      0.00000000	      0.00000000	     -0.00000000	     -0.00000000	     -0.00000000	     -0.00000000	      0.00000000	      0.00000000	      0.00000000	      0.00000000	      0.00000000	      0.00000000	     37.51018687	     82.71151063	      4.38465214	      0.10600562	      0.81164229	    -23.82964275	    -59.23382255	   -290.36790474	      0.00475910	      0.02095718	     -0.47572947	     -0.08819688	     17.38069638	      6.38535539	      0.04304053	     -0.08561272	     -0.02295223	      0.01067236	     22.06882422	    -21.16170547	      0.00000000	     -0.00000000	      0.00000000	      0.00000000	     -0.02640990	      0.11474160	     -0.02640990	      0.16681473	     -0.02640990	      0.12826702	     -0.02640990	      0.12858531	     -0.02640990	      0.14612199	     -0.02640990	      0.11647998
      0.40277778	   -203.52405046	   -480.13863232	    203.44061282	    250.84608178	      0.00000000	      0.00000000	     -0.00000000	     -0.00000000	     -0.00000000	     -0.00000000	      0.00000000	      0.00000000	      0.00000000	      0.00000000	      0.00000000	      0.00000000	     37.51379621	     82.73482866	      4.38465675	      0.10522403	      0.81060259	    -23.82848312	    -59.24649221	   -290.38816354	      0.00476002	      0.02093483	     -0.47573331	     -0.08821286	     17.38097483	      6.37832635	      0.04303679	     -0.08562606	     -0.02295177	      0.01067271	     22.06790143	    -21.13756517	      0.00000000	     -0.00000000	      0.00000000	      0.00000000	     -0.02641552	      0.11473817	     -0.02641552	      0.16680759	     -0.02641552	      0.12826976	     -0.02641552	      0.12859455	     -0.02641552	      0.14616428	     -0.02641552	      0.11648082
